# xmcd
#
# Track frame offsets: 
#        150
#        12895
#        26456
#        44032
#        64038
#        81717
#        95677
#        113229
#        128826
#
# Disc length: 2489 seconds
#
# Revision: 0
# Processed by: cddbd v1.5.2PL0 Copyright (c) Steve Scherf et al.
# Submitted via: ExactAudioCopy v0.99pb4
#
DISCID=7909b709
DTITLE=The Dirty Lungs - Somebody Here's Going Crazy
DYEAR=2009
DGENRE=Psychedelic Rock
TTITLE0=Tired of This Company
TTITLE1=Runnin
TTITLE2=Sit Tight
TTITLE3=Live Legit
TTITLE4=1000 Suns
TTITLE5=Chump Change
TTITLE6=Tiger and Its Prey
TTITLE7=Somebody Here's Going Crazy
TTITLE8=Vibrations
EXTD=
EXTT0=
EXTT1=
EXTT2=
EXTT3=
EXTT4=
EXTT5=
EXTT6=
EXTT7=
EXTT8=
PLAYORDER=
